<svg width="64" height="64" viewBox="0 0 100 100" fill="none" xmlns="http://www.w3.org/2000/svg">
    <defs>
        <linearGradient id="grad1" x1="0%" y1="0%" x2="100%" y2="100%">
            <stop offset="0%" style="stop-color:#0ea5e9;stop-opacity:1" />
            <stop offset="100%" style="stop-color:#0284c7;stop-opacity:1" />
        </linearGradient>
    </defs>
    <path d="M50 25C36.1929 25 25 36.1929 25 50C25 63.8071 36.1929 75 50 75C60.3757 75 69.2464 68.6521 73.0589 59.375H50V46.875H87.1346C87.5 53.125 87.5 59.375 87.5 59.375C87.5 80.0863 70.7113 96.875 50 96.875C24.1137 96.875 3.125 75.8863 3.125 50C3.125 24.1137 24.1137 3.125 50 3.125C62.9473 3.125 74.6684 8.36769 83.3333 17.0326L74.4968 25.869C68.3015 19.6738 59.6667 15.625 50 15.625V25Z" fill="url(#grad1)"/>
    <circle cx="50" cy="50" r="45" stroke="url(#grad1)" stroke-width="2" stroke-opacity="0.5" stroke-dasharray="10 5"/>
    <ellipse cx="50" cy="50" rx="30" ry="40" stroke="url(#grad1)" stroke-width="2" stroke-opacity="0.7" transform="rotate(45 50 50)"/>
    <circle cx="95" cy="50" r="4" fill="#ffffff" filter="drop-shadow(0 0 4px #0ea5e9)"/>
    <circle cx="50" cy="20" r="3" fill="#ffffff" filter="drop-shadow(0 0 3px #0ea5e9)" transform="rotate(45 50 50)"/>
</svg>